# xmcd
#
# Track frame offsets:
#	150
#	11716
#	24735
#	43964
#	65631
#	83164
#	98307
#	112667
#	123331
#	138175
#
# Disc length: 2100 seconds
#
# Revision: 1
# Processed by: cddbd v1.5.2PL0 Copyright (c) Steve Scherf et al.
# Submitted via: audiograbber 1.83.01
#
DISCID=7808320a
DTITLE=Troy Turner - Handful of Aces
DYEAR=1992
DGENRE=Blues
TTITLE0=Handful of Aces
TTITLE1=No Hard Feelings	
TTITLE2=Cold Cold People
TTITLE3=Whole Lotta Ash
TTITLE4=Bumpin'
TTITLE5=100 Reasons Why
TTITLE6=Fast as I Can Go
TTITLE7=Don't Happen That Way
TTITLE8=Born in Louisiana
TTITLE9=Troy's Shuffle
EXTD=
EXTT0=
EXTT1=
EXTT2=
EXTT3=
EXTT4=
EXTT5=
EXTT6=
EXTT7=
EXTT8=
EXTT9=
PLAYORDER=
